<?xml version="1.0" encoding="utf-8"?>
<!-- Generator: Adobe Illustrator 22.0.0, SVG Export Plug-In . SVG Version: 6.00 Build 0)  -->
<svg version="1.1" id="图层_1" xmlns="http://www.w3.org/2000/svg" xmlns:xlink="http://www.w3.org/1999/xlink" x="0px" y="0px"
	 viewBox="0 0 1000 1334" style="enable-background:new 0 0 1000 1334;" xml:space="preserve">
<style type="text/css">
	.st0{fill:none;stroke:#000000;stroke-width:2;stroke-miterlimit:10;}
</style>
<path class="st0" d="M498,618H258c-6.6,0-12-5.4-12-12V264c0-6.6,5.4-12,12-12h240c6.6,0,12,5.4,12,12v342
	C510,612.6,504.6,618,498,618z"/>
<path class="st0" d="M504,228H252c-6.6,0-12-5.4-12-12v0c0-6.6,5.4-12,12-12h252c6.6,0,12,5.4,12,12v0C516,222.6,510.6,228,504,228z
	"/>
<path class="st0" d="M504,661H252c-6.6,0-12-5.4-12-12l0,0c0-6.6,5.4-12,12-12h252c6.6,0,12,5.4,12,12l0,0
	C516,655.6,510.6,661,504,661z"/>
<path class="st0" d="M178,400H92c-6.6,0-12-5.4-12-12v-26c0-46.8,38.3-85,85-85h13c6.6,0,12,5.4,12,12v99
	C190,394.6,184.6,400,178,400z"/>
<path class="st0" d="M178,610H92c-6.6,0-12-5.4-12-12v-63.5c0-26.1,21.4-47.5,47.5-47.5H178c6.6,0,12,5.4,12,12v99
	C190,604.6,184.6,610,178,610z"/>
<path class="st0" d="M601,610h86c6.6,0,12-5.4,12-12v-63.5c0-26.1-21.4-47.5-47.5-47.5H601c-6.6,0-12,5.4-12,12v99
	C589,604.6,594.4,610,601,610z"/>
<path class="st0" d="M592,400h86c6.6,0,12-5.4,12-12v-26c0-46.8-38.3-85-85-85h-13c-6.6,0-12,5.4-12,12v99
	C580,394.6,585.4,400,592,400z"/>
<path class="st0" d="M236.3,738c-55.7,0-100.8,45.1-100.8,100.8c0,55.7,45.1,100.8,100.8,100.8s100.8-45.1,100.8-100.8
	C337.1,783.1,292,738,236.3,738z M236.3,901.5c-34.6,0-62.7-28.1-62.7-62.7c0-34.6,28.1-62.7,62.7-62.7s62.7,28.1,62.7,62.7
	C299,873.4,270.9,901.5,236.3,901.5z"/>
<path class="st0" d="M580.3,738c-55.7,0-100.8,45.1-100.8,100.8c0,55.7,45.1,100.8,100.8,100.8s100.8-45.1,100.8-100.8
	C681.1,783.1,636,738,580.3,738z M580.3,901.5c-34.6,0-62.7-28.1-62.7-62.7c0-34.6,28.1-62.7,62.7-62.7s62.7,28.1,62.7,62.7
	C643,873.4,614.9,901.5,580.3,901.5z"/>
<path class="st0" d="M236.3,959c-55.7,0-100.8,45.1-100.8,100.8c0,55.7,45.1,100.8,100.8,100.8s100.8-45.1,100.8-100.8
	C337.1,1004.1,292,959,236.3,959z M236.3,1122.5c-34.6,0-62.7-28.1-62.7-62.7s28.1-62.7,62.7-62.7s62.7,28.1,62.7,62.7
	S270.9,1122.5,236.3,1122.5z"/>
<path class="st0" d="M580.3,959c-55.7,0-100.8,45.1-100.8,100.8c0,55.7,45.1,100.8,100.8,100.8s100.8-45.1,100.8-100.8
	C681.1,1004.1,636,959,580.3,959z M580.3,1122.5c-34.6,0-62.7-28.1-62.7-62.7s28.1-62.7,62.7-62.7s62.7,28.1,62.7,62.7
	S614.9,1122.5,580.3,1122.5z"/>
</svg>
